<mxfile host="app.diagrams.net" modified="2023-10-05T12:22:12.322Z" agent="Mozilla/5.0 (Windows NT 10.0; Win64; x64) AppleWebKit/537.36 (KHTML, like Gecko) Chrome/117.0.0.0 Safari/537.36" etag="P-IeNFbTzRjB66a3va_A" version="22.0.2" type="github">
  <diagram id="C5RBs43oDa-KdzZeNtuy" name="Page-1">
    <mxGraphModel dx="1105" dy="604" grid="1" gridSize="10" guides="1" tooltips="1" connect="1" arrows="1" fold="1" page="1" pageScale="1" pageWidth="827" pageHeight="1169" math="0" shadow="0">
      <root>
        <mxCell id="WIyWlLk6GJQsqaUBKTNV-0" />
        <mxCell id="WIyWlLk6GJQsqaUBKTNV-1" parent="WIyWlLk6GJQsqaUBKTNV-0" />
        <mxCell id="WIyWlLk6GJQsqaUBKTNV-2" value="" style="rounded=0;html=1;jettySize=auto;orthogonalLoop=1;fontSize=11;endArrow=block;endFill=0;endSize=8;strokeWidth=1;shadow=0;labelBackgroundColor=none;edgeStyle=orthogonalEdgeStyle;" parent="WIyWlLk6GJQsqaUBKTNV-1" source="WIyWlLk6GJQsqaUBKTNV-3" edge="1">
          <mxGeometry relative="1" as="geometry">
            <mxPoint x="100.00000000000011" y="130" as="targetPoint" />
          </mxGeometry>
        </mxCell>
        <mxCell id="WIyWlLk6GJQsqaUBKTNV-3" value="Kendaraan Masuk" style="rounded=1;whiteSpace=wrap;html=1;fontSize=12;glass=0;strokeWidth=1;shadow=0;" parent="WIyWlLk6GJQsqaUBKTNV-1" vertex="1">
          <mxGeometry x="40" y="40" width="120" height="40" as="geometry" />
        </mxCell>
        <mxCell id="XXswyWJ1J0zT-N6dUeI8-13" style="edgeStyle=orthogonalEdgeStyle;rounded=0;orthogonalLoop=1;jettySize=auto;html=1;exitX=1;exitY=0.5;exitDx=0;exitDy=0;" edge="1" parent="WIyWlLk6GJQsqaUBKTNV-1" source="XXswyWJ1J0zT-N6dUeI8-8" target="XXswyWJ1J0zT-N6dUeI8-9">
          <mxGeometry relative="1" as="geometry" />
        </mxCell>
        <mxCell id="XXswyWJ1J0zT-N6dUeI8-8" value="TERMINAL 1/2/3/4" style="rounded=1;whiteSpace=wrap;html=1;" vertex="1" parent="WIyWlLk6GJQsqaUBKTNV-1">
          <mxGeometry x="40" y="130" width="120" height="60" as="geometry" />
        </mxCell>
        <mxCell id="XXswyWJ1J0zT-N6dUeI8-14" style="edgeStyle=orthogonalEdgeStyle;rounded=0;orthogonalLoop=1;jettySize=auto;html=1;exitX=0.5;exitY=1;exitDx=0;exitDy=0;entryX=0.5;entryY=0;entryDx=0;entryDy=0;" edge="1" parent="WIyWlLk6GJQsqaUBKTNV-1" source="XXswyWJ1J0zT-N6dUeI8-9" target="XXswyWJ1J0zT-N6dUeI8-11">
          <mxGeometry relative="1" as="geometry" />
        </mxCell>
        <mxCell id="XXswyWJ1J0zT-N6dUeI8-9" value="save data locally" style="rounded=1;whiteSpace=wrap;html=1;" vertex="1" parent="WIyWlLk6GJQsqaUBKTNV-1">
          <mxGeometry x="217" y="130" width="120" height="60" as="geometry" />
        </mxCell>
        <mxCell id="XXswyWJ1J0zT-N6dUeI8-16" value="" style="edgeStyle=orthogonalEdgeStyle;rounded=0;orthogonalLoop=1;jettySize=auto;html=1;" edge="1" parent="WIyWlLk6GJQsqaUBKTNV-1" source="XXswyWJ1J0zT-N6dUeI8-11" target="XXswyWJ1J0zT-N6dUeI8-15">
          <mxGeometry relative="1" as="geometry" />
        </mxCell>
        <mxCell id="XXswyWJ1J0zT-N6dUeI8-19" value="YES" style="edgeLabel;html=1;align=center;verticalAlign=middle;resizable=0;points=[];" vertex="1" connectable="0" parent="XXswyWJ1J0zT-N6dUeI8-16">
          <mxGeometry x="-0.2514" y="1" relative="1" as="geometry">
            <mxPoint as="offset" />
          </mxGeometry>
        </mxCell>
        <mxCell id="XXswyWJ1J0zT-N6dUeI8-11" value="checking for internet connection" style="rhombus;whiteSpace=wrap;html=1;" vertex="1" parent="WIyWlLk6GJQsqaUBKTNV-1">
          <mxGeometry x="197" y="220" width="160" height="120" as="geometry" />
        </mxCell>
        <mxCell id="XXswyWJ1J0zT-N6dUeI8-15" value="save data to server" style="whiteSpace=wrap;html=1;" vertex="1" parent="WIyWlLk6GJQsqaUBKTNV-1">
          <mxGeometry x="40" y="250" width="120" height="60" as="geometry" />
        </mxCell>
        <mxCell id="XXswyWJ1J0zT-N6dUeI8-20" value="" style="rounded=0;html=1;jettySize=auto;orthogonalLoop=1;fontSize=11;endArrow=block;endFill=0;endSize=8;strokeWidth=1;shadow=0;labelBackgroundColor=none;edgeStyle=orthogonalEdgeStyle;" edge="1" source="XXswyWJ1J0zT-N6dUeI8-21" parent="WIyWlLk6GJQsqaUBKTNV-1">
          <mxGeometry relative="1" as="geometry">
            <mxPoint x="540.0000000000001" y="130" as="targetPoint" />
          </mxGeometry>
        </mxCell>
        <mxCell id="XXswyWJ1J0zT-N6dUeI8-21" value="Kendaraan Keluar" style="rounded=1;whiteSpace=wrap;html=1;fontSize=12;glass=0;strokeWidth=1;shadow=0;" vertex="1" parent="WIyWlLk6GJQsqaUBKTNV-1">
          <mxGeometry x="480" y="40" width="120" height="40" as="geometry" />
        </mxCell>
        <mxCell id="XXswyWJ1J0zT-N6dUeI8-22" style="edgeStyle=orthogonalEdgeStyle;rounded=0;orthogonalLoop=1;jettySize=auto;html=1;exitX=1;exitY=0.5;exitDx=0;exitDy=0;" edge="1" source="XXswyWJ1J0zT-N6dUeI8-23" target="XXswyWJ1J0zT-N6dUeI8-25" parent="WIyWlLk6GJQsqaUBKTNV-1">
          <mxGeometry relative="1" as="geometry" />
        </mxCell>
        <mxCell id="XXswyWJ1J0zT-N6dUeI8-30" value="" style="edgeStyle=orthogonalEdgeStyle;rounded=0;orthogonalLoop=1;jettySize=auto;html=1;" edge="1" parent="WIyWlLk6GJQsqaUBKTNV-1" source="XXswyWJ1J0zT-N6dUeI8-23" target="XXswyWJ1J0zT-N6dUeI8-25">
          <mxGeometry relative="1" as="geometry" />
        </mxCell>
        <mxCell id="XXswyWJ1J0zT-N6dUeI8-23" value="TERMINAL 2/3/4/5" style="rounded=1;whiteSpace=wrap;html=1;" vertex="1" parent="WIyWlLk6GJQsqaUBKTNV-1">
          <mxGeometry x="480" y="130" width="120" height="60" as="geometry" />
        </mxCell>
        <mxCell id="XXswyWJ1J0zT-N6dUeI8-24" style="edgeStyle=orthogonalEdgeStyle;rounded=0;orthogonalLoop=1;jettySize=auto;html=1;exitX=0.5;exitY=1;exitDx=0;exitDy=0;entryX=0.5;entryY=0;entryDx=0;entryDy=0;" edge="1" source="XXswyWJ1J0zT-N6dUeI8-25" target="XXswyWJ1J0zT-N6dUeI8-28" parent="WIyWlLk6GJQsqaUBKTNV-1">
          <mxGeometry relative="1" as="geometry" />
        </mxCell>
        <mxCell id="XXswyWJ1J0zT-N6dUeI8-25" value="save data locally" style="rounded=1;whiteSpace=wrap;html=1;" vertex="1" parent="WIyWlLk6GJQsqaUBKTNV-1">
          <mxGeometry x="657" y="130" width="120" height="60" as="geometry" />
        </mxCell>
        <mxCell id="XXswyWJ1J0zT-N6dUeI8-26" value="" style="edgeStyle=orthogonalEdgeStyle;rounded=0;orthogonalLoop=1;jettySize=auto;html=1;" edge="1" source="XXswyWJ1J0zT-N6dUeI8-28" target="XXswyWJ1J0zT-N6dUeI8-29" parent="WIyWlLk6GJQsqaUBKTNV-1">
          <mxGeometry relative="1" as="geometry" />
        </mxCell>
        <mxCell id="XXswyWJ1J0zT-N6dUeI8-27" value="NO" style="edgeLabel;html=1;align=center;verticalAlign=middle;resizable=0;points=[];" vertex="1" connectable="0" parent="XXswyWJ1J0zT-N6dUeI8-26">
          <mxGeometry x="-0.2514" y="1" relative="1" as="geometry">
            <mxPoint as="offset" />
          </mxGeometry>
        </mxCell>
        <mxCell id="XXswyWJ1J0zT-N6dUeI8-36" value="" style="edgeStyle=orthogonalEdgeStyle;rounded=0;orthogonalLoop=1;jettySize=auto;html=1;" edge="1" parent="WIyWlLk6GJQsqaUBKTNV-1" source="XXswyWJ1J0zT-N6dUeI8-28" target="XXswyWJ1J0zT-N6dUeI8-35">
          <mxGeometry relative="1" as="geometry" />
        </mxCell>
        <mxCell id="XXswyWJ1J0zT-N6dUeI8-37" value="YES" style="edgeLabel;html=1;align=center;verticalAlign=middle;resizable=0;points=[];" vertex="1" connectable="0" parent="XXswyWJ1J0zT-N6dUeI8-36">
          <mxGeometry x="-0.4056" y="-1" relative="1" as="geometry">
            <mxPoint as="offset" />
          </mxGeometry>
        </mxCell>
        <mxCell id="XXswyWJ1J0zT-N6dUeI8-28" value="checking for internet connection" style="rhombus;whiteSpace=wrap;html=1;" vertex="1" parent="WIyWlLk6GJQsqaUBKTNV-1">
          <mxGeometry x="637" y="220" width="160" height="120" as="geometry" />
        </mxCell>
        <mxCell id="XXswyWJ1J0zT-N6dUeI8-29" value="pending payment" style="whiteSpace=wrap;html=1;" vertex="1" parent="WIyWlLk6GJQsqaUBKTNV-1">
          <mxGeometry x="480" y="250" width="120" height="60" as="geometry" />
        </mxCell>
        <mxCell id="XXswyWJ1J0zT-N6dUeI8-39" value="" style="edgeStyle=orthogonalEdgeStyle;rounded=0;orthogonalLoop=1;jettySize=auto;html=1;" edge="1" parent="WIyWlLk6GJQsqaUBKTNV-1" source="XXswyWJ1J0zT-N6dUeI8-35" target="XXswyWJ1J0zT-N6dUeI8-38">
          <mxGeometry relative="1" as="geometry" />
        </mxCell>
        <mxCell id="XXswyWJ1J0zT-N6dUeI8-35" value="hitung biaya dan bayar" style="whiteSpace=wrap;html=1;" vertex="1" parent="WIyWlLk6GJQsqaUBKTNV-1">
          <mxGeometry x="657" y="380" width="120" height="60" as="geometry" />
        </mxCell>
        <mxCell id="XXswyWJ1J0zT-N6dUeI8-38" value="SELESAI" style="ellipse;whiteSpace=wrap;html=1;" vertex="1" parent="WIyWlLk6GJQsqaUBKTNV-1">
          <mxGeometry x="677" y="480" width="80" height="80" as="geometry" />
        </mxCell>
      </root>
    </mxGraphModel>
  </diagram>
</mxfile>
